<?xml version="1.0" encoding="UTF-8" standalone="no"?>
<svg
   xmlns:dc="http://purl.org/dc/elements/1.1/"
   xmlns:cc="http://creativecommons.org/ns#"
   xmlns:rdf="http://www.w3.org/1999/02/22-rdf-syntax-ns#"
   xmlns:svg="http://www.w3.org/2000/svg"
   xmlns="http://www.w3.org/2000/svg"
   xmlns:sodipodi="http://sodipodi.sourceforge.net/DTD/sodipodi-0.dtd"
   xmlns:inkscape="http://www.inkscape.org/namespaces/inkscape"
   version="1.1"
   id="svg2"
   xml:space="preserve"
   width="99.09333"
   height="56.693333"
   viewBox="0 0 99.09333 56.693333"
   sodipodi:docname="junta-de-andalucia-marca-generica.eps"><metadata
     id="metadata8"><rdf:RDF><cc:Work
         rdf:about=""><dc:format>image/svg+xml</dc:format><dc:type
           rdf:resource="http://purl.org/dc/dcmitype/StillImage" /></cc:Work></rdf:RDF></metadata><defs
     id="defs6" /><sodipodi:namedview
     pagecolor="#ffffff"
     bordercolor="#666666"
     borderopacity="1"
     objecttolerance="10"
     gridtolerance="10"
     guidetolerance="10"
     inkscape:pageopacity="0"
     inkscape:pageshadow="2"
     inkscape:window-width="640"
     inkscape:window-height="480"
     id="namedview4" /><g
     id="g10"
     inkscape:groupmode="layer"
     inkscape:label="ink_ext_XXXXXX"
     transform="matrix(1.3333333,0,0,-1.3333333,0,56.693333)"><g
       id="g12"
       transform="scale(0.1)"><path
         d="m 0,10.3789 8.0625,5.9883 c 2.3164,-4.3125 5.4297,-6.1484 8.7813,-6.1484 5.1875,0 7.9023,2.7929 7.9023,10.9375 V 60.2695 H 36.5625 V 20.1953 C 36.5625,9.10156 30.9727,0 18.2813,0 9.66016,0 3.91406,3.51172 0,10.3789"
         style="fill:#231f20;fill-opacity:1;fill-rule:nonzero;stroke:none"
         id="path14" /><path
         d="M 49.3359,17.8828 V 45.8203 H 61.0703 V 19.3984 c 0,-6.8671 1.9141,-9.3398 6.2266,-9.3398 3.6719,0 6.0664,1.5977 9.0976,5.5898 V 45.8203 H 88.1328 V 1.11719 h -9.582 L 77.6719,7.50391 H 77.3516 C 73.5234,2.95313 69.2109,0 63.1445,0 53.4844,0 49.3359,6.70703 49.3359,17.8828"
         style="fill:#231f20;fill-opacity:1;fill-rule:nonzero;stroke:none"
         id="path16" /><path
         d="m 100.664,45.8203 h 9.578 l 0.879,-5.9062 h 0.242 c 3.907,3.832 8.457,7.0273 14.524,7.0273 9.66,0 13.812,-6.707 13.812,-17.9648 V 1.11719 H 127.965 V 27.5391 c 0,6.9453 -1.914,9.3398 -6.309,9.3398 -3.672,0 -5.984,-1.7578 -9.258,-5.0273 V 1.11719 H 100.664 V 45.8203"
         style="fill:#231f20;fill-opacity:1;fill-rule:nonzero;stroke:none"
         id="path18" /><path
         d="m 153.508,16.7617 v 19.8008 h -6.305 v 8.6992 l 6.945,0.5586 1.356,12.0547 h 9.738 V 45.8203 h 11.016 V 36.5625 H 165.242 V 16.7617 c 0,-5.1054 2.078,-7.50389 6.067,-7.50389 1.437,0 3.191,0.48047 4.39,0.96099 l 1.918,-8.54302 C 175.223,0.878906 172.109,0 168.199,0 157.578,0 153.508,6.78516 153.508,16.7617"
         style="fill:#231f20;fill-opacity:1;fill-rule:nonzero;stroke:none"
         id="path20" /><path
         d="m 181.289,13.2539 c 0,9.5781 7.742,14.6055 25.781,16.5234 -0.238,4.3907 -2.152,7.7422 -7.66,7.7422 -4.152,0 -8.144,-1.8359 -12.293,-4.2304 l -4.23,7.7422 c 5.265,3.2695 11.652,5.9101 18.676,5.9101 11.335,0 17.164,-6.7851 17.164,-19.7187 V 1.11719 h -9.579 l -0.796,4.78906 h -0.321 C 204.121,2.55469 199.648,0 194.539,0 c -7.98,0 -13.25,5.66797 -13.25,13.2539 z m 25.781,0.3164 v 9.0195 c -10.933,-1.3554 -14.605,-4.3867 -14.605,-8.3789 0,-3.5156 2.473,-5.03121 5.906,-5.03121 3.356,0 5.828,1.59761 8.699,4.39061"
         style="fill:#231f20;fill-opacity:1;fill-rule:nonzero;stroke:none"
         id="path22" /><path
         d="m 246.266,23.4688 c 0,14.5312 9.101,23.4726 18.761,23.4726 5.028,0 8.141,-1.918 11.336,-4.8711 l -0.398,7.0235 v 15.7265 h 11.652 V 1.11719 h -9.5 l -0.875,4.6289 h -0.32 C 273.648,2.55469 269.176,0 264.547,0 253.453,0 246.266,8.78125 246.266,23.4688 Z m 29.699,-9.1797 v 19.6367 c -2.715,2.4765 -5.59,3.3515 -8.387,3.3515 -5.027,0 -9.258,-4.789 -9.258,-13.7265 0,-9.2617 3.356,-13.89064 9.258,-13.89064 3.113,0 5.75,1.27734 8.387,4.62894"
         style="fill:#231f20;fill-opacity:1;fill-rule:nonzero;stroke:none"
         id="path24" /><path
         d="m 297.438,23.4688 c 0,14.4492 10.214,23.4726 20.832,23.4726 12.293,0 18.679,-9.0234 18.679,-21.3164 0,-2.2344 -0.238,-4.3906 -0.558,-5.4297 h -27.539 c 0.957,-7.3437 5.746,-11.17186 12.375,-11.17186 3.671,0 6.863,1.11326 10.058,3.11326 l 3.988,-7.18748 C 330.883,1.91406 325.215,0 319.707,0 307.176,0 297.438,8.69922 297.438,23.4688 Z m 29.453,4.5507 c 0,5.9883 -2.711,9.8203 -8.461,9.8203 -4.711,0 -8.86,-3.3554 -9.739,-9.8203 h 18.2"
         style="fill:#231f20;fill-opacity:1;fill-rule:nonzero;stroke:none"
         id="path26" /><path
         d="m 377.023,60.2695 h 13.891 L 409.91,1.11719 H 397.539 L 393.387,16.2852 H 374.23 L 370.078,1.11719 h -11.976 z m -0.238,-34.8047 h 14.051 l -1.758,6.4649 c -1.836,6.1484 -3.433,12.9336 -5.113,19.3203 h -0.395 c -1.519,-6.4648 -3.277,-13.1719 -5.031,-19.3203 l -1.754,-6.4649"
         style="fill:#231f20;fill-opacity:1;fill-rule:nonzero;stroke:none"
         id="path28" /><path
         d="m 415.898,45.8203 h 9.579 l 0.878,-5.9062 h 0.239 c 3.914,3.832 8.461,7.0273 14.527,7.0273 9.66,0 13.813,-6.707 13.813,-17.9648 V 1.11719 H 443.199 V 27.5391 c 0,6.9453 -1.914,9.3398 -6.308,9.3398 -3.672,0 -5.985,-1.7578 -9.258,-5.0273 V 1.11719 H 415.898 V 45.8203"
         style="fill:#231f20;fill-opacity:1;fill-rule:nonzero;stroke:none"
         id="path30" /><path
         d="m 464.512,23.4688 c 0,14.5312 9.101,23.4726 18.758,23.4726 5.031,0 8.144,-1.918 11.335,-4.8711 l -0.398,7.0235 v 15.7265 h 11.656 V 1.11719 h -9.5 l -0.879,4.6289 h -0.32 C 491.895,2.55469 487.422,0 482.793,0 471.695,0 464.512,8.78125 464.512,23.4688 Z m 29.695,-9.1797 v 19.6367 c -2.715,2.4765 -5.586,3.3515 -8.379,3.3515 -5.031,0 -9.262,-4.789 -9.262,-13.7265 0,-9.2617 3.352,-13.89064 9.262,-13.89064 3.113,0 5.746,1.27734 8.379,4.62894"
         style="fill:#231f20;fill-opacity:1;fill-rule:nonzero;stroke:none"
         id="path32" /><path
         d="m 516.238,13.2539 c 0,9.5781 7.746,14.6055 25.789,16.5234 -0.242,4.3907 -2.156,7.7422 -7.664,7.7422 -4.152,0 -8.144,-1.8359 -12.297,-4.2304 l -4.23,7.7422 c 5.269,3.2695 11.656,5.9101 18.68,5.9101 11.336,0 17.164,-6.7851 17.164,-19.7187 V 1.11719 h -9.582 l -0.797,4.78906 h -0.317 C 539.07,2.55469 534.602,0 529.492,0 521.508,0 516.238,5.66797 516.238,13.2539 Z m 25.789,0.3164 v 9.0195 c -10.937,-1.3554 -14.609,-4.3867 -14.609,-8.3789 0,-3.5156 2.473,-5.03121 5.906,-5.03121 3.352,0 5.828,1.59761 8.703,4.39061"
         style="fill:#231f20;fill-opacity:1;fill-rule:nonzero;stroke:none"
         id="path34" /><path
         d="m 565.652,13.6523 v 51.168 h 11.735 V 13.1719 c 0,-2.7149 1.195,-3.58987 2.316,-3.58987 0.481,0 0.797,0 1.594,0.15625 l 1.437,-8.69922 C 581.379,0.480469 579.461,0 576.668,0 568.527,0 565.652,5.34766 565.652,13.6523"
         style="fill:#231f20;fill-opacity:1;fill-rule:nonzero;stroke:none"
         id="path36" /><path
         d="m 590.32,17.8828 v 27.9375 h 11.731 V 19.3984 c 0,-6.8671 1.918,-9.3398 6.23,-9.3398 3.672,0 6.067,1.5977 9.098,5.5898 v 30.1719 h 11.738 V 1.11719 h -9.582 l -0.879,6.38672 h -0.32 C 614.508,2.95313 610.195,0 604.129,0 594.469,0 590.32,6.70703 590.32,17.8828"
         style="fill:#231f20;fill-opacity:1;fill-rule:nonzero;stroke:none"
         id="path38" /><path
         d="m 638.855,23.4688 c 0,14.8515 10.696,23.4726 22.829,23.4726 5.507,0 9.738,-2.1562 13.011,-4.9531 l -5.586,-7.582 c -2.238,1.914 -4.312,2.9531 -6.785,2.9531 -6.867,0 -11.496,-5.5078 -11.496,-13.8906 0,-8.461 4.707,-13.88677 11.094,-13.88677 3.195,0 6.226,1.51567 8.703,3.58987 l 4.707,-7.74221 C 671.023,1.67578 665.594,0 660.645,0 c -12.372,0 -21.79,8.62109 -21.79,23.4688"
         style="fill:#231f20;fill-opacity:1;fill-rule:nonzero;stroke:none"
         id="path40" /><path
         d="m 683.715,45.8203 h 11.734 V 1.11719 h -11.734 z m 0.402,12.8516 13.567,16.207 8.062,-7.8242 -15.805,-14.0508 -5.824,5.668"
         style="fill:#231f20;fill-opacity:1;fill-rule:nonzero;stroke:none"
         id="path42" /><path
         d="m 705.746,13.2539 c 0,9.5781 7.746,14.6055 25.785,16.5234 -0.242,4.3907 -2.156,7.7422 -7.664,7.7422 -4.152,0 -8.144,-1.8359 -12.293,-4.2304 l -4.23,7.7422 c 5.269,3.2695 11.656,5.9101 18.679,5.9101 11.336,0 17.161,-6.7851 17.161,-19.7187 V 1.11719 h -9.579 l -0.796,4.78906 h -0.321 C 728.578,2.55469 724.109,0 719,0 711.016,0 705.746,5.66797 705.746,13.2539 Z m 25.785,0.3164 v 9.0195 c -10.937,-1.3554 -14.609,-4.3867 -14.609,-8.3789 0,-3.5156 2.473,-5.03121 5.906,-5.03121 3.356,0 5.828,1.59761 8.703,4.39061"
         style="fill:#231f20;fill-opacity:1;fill-rule:nonzero;stroke:none"
         id="path44" /><path
         d="m 402.949,425.195 h -63.492 l -149.43,-317.8 h 63.496 l 149.426,317.8"
         style="fill:#399044;fill-opacity:1;fill-rule:evenodd;stroke:none"
         id="path46" /><path
         d="m 465.75,107.395 h 63.891 c -34.434,51.687 -93.235,85.75 -160,85.75 -10.27,0 -20.348,-0.813 -30.184,-2.364 v -49.679 c 9.801,2.125 19.969,3.277 30.406,3.277 36.91,0 70.543,-14.004 95.887,-36.984"
         style="fill:#399044;fill-opacity:1;fill-rule:evenodd;stroke:none"
         id="path48" /><path
         d="m 529.09,108.195 h 0.148 l -126.289,317 -34.441,-73.254 67.676,-170.652 c 38.125,-14.082 70.554,-39.906 92.906,-73.094"
         style="fill:#17773b;fill-opacity:1;fill-rule:evenodd;stroke:none"
         id="path50" /></g></g></svg>
